<svg xmlns="http://www.w3.org/2000/svg" fill="none" viewBox="0 0 68 67">
  <path
    fill="#fff"
    d="M66.175 23.95c-.339-1.697-.758-3.4-1.24-5.053a1.298 1.298 0 0 0-.604-.751 1.322 1.322 0 0 0-.96-.134 3.598 3.598 0 0 1-2.19-.16 3.554 3.554 0 0 1-1.68-1.399 1.339 1.339 0 0 0-.843-.592 1.278 1.278 0 0 0-.97.177 6.468 6.468 0 0 1-5.622.702 6.415 6.415 0 0 1-2.462-1.533 6.327 6.327 0 0 1-1.523-2.453 1.3 1.3 0 0 0-.628-.737 1.322 1.322 0 0 0-.97-.104 7.42 7.42 0 0 1-1.699.224c-1.404 0-5.168-1.508-6.09-4.432a5.113 5.113 0 0 1-.223-1.559c.022-.53.137-1.05.34-1.54a1.266 1.266 0 0 0-.019-.978 1.285 1.285 0 0 0-.711-.68 3.505 3.505 0 0 1-1.123-.72 3.5 3.5 0 0 1-.85-1.336 1.278 1.278 0 0 0-.45-.606 1.3 1.3 0 0 0-.718-.25c-.291-.014-.656-.032-1.02-.032-10.173-.13-19.013 3.121-24.911 9.148-4.326 4.418-6.124 9.297-6.803 11.134a36.068 36.068 0 0 0-2.05 9.79 42.349 42.349 0 0 0 .511 11.127 44.512 44.512 0 0 0 3.465 10.73c.11.234 2.746 5.792 6.35 8.26a9.02 9.02 0 0 0 1.98 1.008c.526.178 1.07.3 1.623.36 2.451.296 4.11-.747 5.577-1.667 1.01-.635 1.97-1.234 3.133-1.444 1.951-.317 3.246.722 4.741 1.906 1.496 1.184 3.24 2.577 5.836 2.396 2.25-.158 3.417-1.367 4.442-2.436.912-.942 1.77-1.833 3.337-2.06 3.133-.459 5.872 2.165 8.528 4.691C51.867 65.022 53.924 67 56.072 67c.372 0 .742-.06 1.094-.177 1.718-.567 2.754-2.447 4.81-6.186l.096-.17a31.328 31.328 0 0 0 2.337-5.413c2.586-7.781 2.94-15.432 2.969-18.359.043-4.278-.36-8.55-1.203-12.746Zm-14.29 33.436c-1.765-2.14-3.964-4.807-7.76-5.247a9.502 9.502 0 0 0-1.095-.062c-.478.001-.956.032-1.43.094-2.83.361-4.417 1.714-5.69 2.797-1.046.891-1.87 1.592-3.107 1.675-1.433.093-2.345-.722-3.498-1.743-1.229-1.083-2.626-2.34-4.956-2.57-2.116-.21-4.319.494-6.521 2.068a5.84 5.84 0 0 1-2.47.862 4.157 4.157 0 0 1-1.586-.267 3.174 3.174 0 0 1-.31-.151 4.364 4.364 0 0 1-1.171-1.029c-1.032-1.22-9.95-12.368-6.168-27.875l.059-.242c.707-2.913 2.188-8.98 7.44-13.89a25.396 25.396 0 0 1 14.866-6.732l.183-.018c1.459-.137 3.282-.31 4.012.827.28.447.454.952.507 1.476.033.17.065.361.113.588.27 1.386 1.167 4.8 3.647 6.558 1.51 1.083 3.534 1.469 6.094 1.97.3.058.42.076.493.087l.135.029c1.397.36 1.977 1.249 2.652 2.28.561.863 1.196 1.841 2.378 2.549 1.977 1.183 5.106 1.443 7.425.588l.227-.083c.42-.2.884-.292 1.35-.27 1.282.108 2.26 1.955 2.585 2.562a15.946 15.946 0 0 1 1.328 3.609c.537 2.186.848 4.42.93 6.669v.274c0 .278.029.538.018.787a74.983 74.983 0 0 1-.974 10.22c-1.146 6.442-3.48 14.04-6.284 14.249-1.135.122-2.196-1.166-3.422-2.639Z"
  />
  <path
    fill="#fff"
    d="M15.27 25.05c-2.505 0-4.47 3.407-4.47 7.752s1.965 7.752 4.47 7.752c2.506 0 4.472-3.407 4.472-7.752s-1.962-7.752-4.471-7.752ZM42.038 25.05c-2.506 0-4.472 3.407-4.472 7.752s1.966 7.752 4.472 7.752c2.506 0 4.471-3.407 4.471-7.752s-1.962-7.752-4.471-7.752Z"
  />
</svg>
