<svg xmlns="http://www.w3.org/2000/svg" fill="none" viewBox="0 0 24 24">
  <g>
    <path
      fill="#fff"
      d="M8 4a4 4 0 0 0-4 4v8a4 4 0 0 0 4 4h8a4 4 0 0 0 4-4V8a4 4 0 0 0-4-4H8Z"
    />
    <path
      fill="#00A296"
      d="M8 4a4 4 0 0 0-4 4v8a4 4 0 0 0 4 4h8a4 4 0 0 0 4-4V8a4 4 0 0 0-4-4H8Zm8.561 5a.781.781 0 0 1 0 1.061l-5 5.176a.633.633 0 0 1-.517.176.564.564 0 0 1-.41-.16l-.059-.059-.016-.015-.015-.016L8 12.561A.75.75 0 1 1 9.061 11.5l.625.625 1.4 1.463L15.5 9a.781.781 0 0 1 1.061 0Z"
    />
  </g>
</svg>
