<svg xmlns="http://www.w3.org/2000/svg" fill="none" viewBox="0 0 24 24">
  <g>
    <path
      fill="#fff"
      d="M10.432 19.613a3.405 3.405 0 0 1-1.217-1.078C6.752 15.03 5.5 12.396 5.5 10.705a6.8 6.8 0 0 1 1.906-4.742 6.358 6.358 0 0 1 9.192 0 6.82 6.82 0 0 1 1.9 4.742c0 1.691-1.252 4.324-3.709 7.83a3.378 3.378 0 0 1-4.36 1.078h.003ZM8.402 7a5.322 5.322 0 0 0-1.49 3.709c0 1.338 1.223 3.818 3.442 6.979A2.04 2.04 0 0 0 12 18.55c.321-.002.637-.082.92-.233.288-.151.537-.367.727-.63 2.22-3.16 3.442-5.641 3.442-6.979A5.327 5.327 0 0 0 15.59 7a4.961 4.961 0 0 0-7.193 0h.004Zm3.013 6.45a3.03 3.03 0 0 1-1.535-.823 3.001 3.001 0 0 1-.823-1.535 2.953 2.953 0 0 1 .174-1.735 2.996 2.996 0 0 1 3.643-1.724 3 3 0 0 1 .275 5.642c-.367.152-.76.23-1.158.23a3.003 3.003 0 0 1-.574-.06l-.002.004Zm.29-4.417c-.29.06-.556.203-.764.412a1.498 1.498 0 0 0 .419 2.414c.2.095.42.142.641.141.21 0 .417-.044.61-.129a1.5 1.5 0 0 0 .886-1.521 1.502 1.502 0 0 0-1.796-1.319l.004.002Z"
    />
  </g>
</svg>
