<svg xmlns="http://www.w3.org/2000/svg" fill="none" viewBox="0 0 24 24">
  <g>
    <path
      fill="#fff"
      d="M12 20A7.998 7.998 0 0 1 6.343 6.343 8.002 8.002 0 0 1 20 12a7.998 7.998 0 0 1-8 8Z"
    />
    <path
      fill="#00A296"
      d="M12 20A7.998 7.998 0 0 1 6.343 6.343 8.002 8.002 0 0 1 20 12a7.998 7.998 0 0 1-8 8Zm-4-8.5a.805.805 0 0 0 0 1.062l2.544 2.6.018.02.017.01.059.06a.568.568 0 0 0 .408.163.638.638 0 0 0 .52-.173l5-5.178A.75.75 0 0 0 15.505 9l-4.411 4.588-1.406-1.465-.623-.625a.766.766 0 0 0-.537-.199.744.744 0 0 0-.524.2H8Z"
    />
  </g>
</svg>
