<svg xmlns="http://www.w3.org/2000/svg" fill="none" viewBox="0 0 32 33">
  <g fill="#00A296">
    <path
      d="M13.334 14.5a1 1 0 0 1 1 1v4.667a1 1 0 0 1-2 0V15.5a1 1 0 0 1 1-1ZM18.667 14.5a1 1 0 0 1 1 1v4.667a1 1 0 1 1-2 0V15.5a1 1 0 0 1 1-1Z"
    />
    <path
      fill-rule="evenodd"
      d="M11.367 5.606A5.381 5.381 0 0 0 9.433 8.5h-3.1a1 1 0 1 0 0 2h1v11.667a5 5 0 0 0 5 5h7.334a5.001 5.001 0 0 0 5-5V10.5h1a1 1 0 0 0 0-2h-3.434a5.002 5.002 0 0 0-4.9-4h-2.666a5.381 5.381 0 0 0-3.3 1.106Zm1.565 1.443A3.001 3.001 0 0 0 11.834 8.5h8.329a3.001 3.001 0 0 0-2.83-2h-2.666c-.621 0-1.227.191-1.735.55Zm9.735 3.451H9.333v11.667a3 3 0 0 0 3 3h7.334a3 3 0 0 0 3-3V10.5Z"
      clip-rule="evenodd"
    />
  </g>
</svg>
