<svg xmlns="http://www.w3.org/2000/svg" fill="none" viewBox="0 0 73 40">
  <g fill="#fff">
    <path
      d="M39.597 14.298a36.19 36.19 0 0 0-.742-3.017.775.775 0 0 0-.362-.448.792.792 0 0 0-.575-.08 2.158 2.158 0 0 1-1.31-.095 2.125 2.125 0 0 1-1.005-.835.798.798 0 0 0-.805-.359.763.763 0 0 0-.28.111 3.863 3.863 0 0 1-3.364.42 3.839 3.839 0 0 1-1.473-.916 3.776 3.776 0 0 1-.911-1.465.776.776 0 0 0-.376-.44.793.793 0 0 0-.58-.062 4.45 4.45 0 0 1-1.017.134c-.84 0-3.092-.9-3.644-2.646a3.046 3.046 0 0 1-.133-.93c.013-.317.082-.628.202-.92a.754.754 0 0 0-.01-.584.769.769 0 0 0-.426-.405c-.25-.1-.478-.246-.672-.431a2.088 2.088 0 0 1-.508-.798.779.779 0 0 0-.699-.51c-.175-.009-.393-.02-.611-.02C14.209-.075 8.919 1.866 5.39 5.464c-2.588 2.637-3.664 5.55-4.07 6.647a21.491 21.491 0 0 0-1.226 5.845A25.227 25.227 0 0 0 .399 24.6a26.533 26.533 0 0 0 2.073 6.406c.066.14 1.644 3.458 3.8 4.932.368.248.766.45 1.185.6.315.107.64.18.971.216 1.467.177 2.46-.446 3.337-.995.604-.38 1.178-.737 1.875-.862 1.167-.19 1.942.43 2.837 1.137.895.707 1.938 1.539 3.491 1.431 1.347-.095 2.045-.816 2.659-1.454.545-.563 1.058-1.095 1.996-1.23 1.875-.274 3.514 1.292 5.103 2.8 1.31 1.24 2.54 2.42 3.825 2.42.223 0 .444-.035.655-.106 1.028-.338 1.648-1.46 2.878-3.693l.057-.101a18.685 18.685 0 0 0 1.399-3.232c1.547-4.645 1.759-9.213 1.776-10.96a36.669 36.669 0 0 0-.72-7.61Zm-8.55 19.962c-1.057-1.277-2.373-2.87-4.645-3.132a5.685 5.685 0 0 0-.655-.037c-.286 0-.571.02-.855.056-1.693.215-2.643 1.023-3.404 1.67-.627.532-1.12.95-1.86 1-.858.056-1.403-.431-2.093-1.041-.735-.647-1.571-1.396-2.966-1.534-1.265-.125-2.584.295-3.902 1.234a3.5 3.5 0 0 1-1.477.515 2.494 2.494 0 0 1-.95-.16 1.92 1.92 0 0 1-.185-.09 2.609 2.609 0 0 1-.7-.614c-.618-.728-5.954-7.384-3.69-16.642l.034-.144c.423-1.739 1.31-5.36 4.452-8.293a15.212 15.212 0 0 1 8.895-4.019l.11-.01c.872-.082 1.964-.186 2.4.493.168.267.272.569.303.882.02.101.04.215.068.35.162.828.698 2.866 2.182 3.916.904.646 2.115.877 3.647 1.176.18.035.251.045.295.052l.08.017c.837.216 1.184.746 1.587 1.362.336.515.716 1.099 1.423 1.52 1.183.708 3.056.863 4.444.352l.135-.05c.251-.119.529-.174.807-.161.768.065 1.353 1.168 1.548 1.53.35.684.617 1.407.794 2.154.321 1.306.508 2.64.556 3.982v.164c0 .166.018.32.011.47a44.668 44.668 0 0 1-.582 6.101c-.686 3.846-2.082 8.382-3.76 8.507-.68.072-1.315-.697-2.048-1.576Z"
    />
    <path
      d="M9.137 14.955c-1.499 0-2.675 2.034-2.675 4.628 0 2.594 1.176 4.628 2.675 4.628 1.5 0 2.676-2.034 2.676-4.628 0-2.594-1.174-4.628-2.676-4.628ZM25.154 14.955c-1.5 0-2.676 2.034-2.676 4.628 0 2.594 1.176 4.628 2.676 4.628 1.5 0 2.675-2.034 2.675-4.628 0-2.594-1.174-4.628-2.675-4.628Z"
    />
    <path
      fill-rule="evenodd"
      d="M68.503 4.706a1.06 1.06 0 0 1 .781-.053c.258.083.473.26.6.497.225.494.346 1.028.355 1.57.057 1.097.041 2.762-.849 3.096-1.371.514-1.711-.92-1.77-1.996a7.405 7.405 0 0 1 .111-1.921c.143-.641.28-.932.772-1.193Zm1.679-1.868c-.173-.037-.392-.404-.788-.576a2.955 2.955 0 0 0-1.192-.23c-1.696-.008-2.696 1.189-3.107 2.63-.688 2.408-.712 7.507 2.826 7.813 1.584.137 1.71-.493 2.083-.593-.036.742-.02 1.485.05 2.225.2.631 1.153.453 1.755.454.959 0 1.138-.11 1.14-1.082V6.816c0-4.854.453-4.644-1.325-4.642a3.05 3.05 0 0 0-1.368.134l-.074.53ZM52.6 8.436c1.93-.542 2.385 1.848.961 2.267-1.893.556-2.635-1.797-.962-2.267Zm-1.132-2.817c.263-.359.177-.61.63-.83.393-.16.827-.192 1.239-.092.892.246.823 1.14.823 2.125a3.628 3.628 0 0 0-1.951-.567c-2.083.025-3.718 1.49-3.481 3.739.248 2.348 2.432 3.326 4.4 2.75 1.109-.326.998-.676 1.485-.922.386.455.302.564.92.84.328.146 2.448.672 2.533-.639.047-.573.03-1.15-.053-1.718-.488-.006-.829.075-.91-.385-.303-1.697.855-6.074-1.552-7.318a6.157 6.157 0 0 0-4.317-.31c-1.099.352-2.36 1.404-2.166 2.881.343.263 1.882.487 2.4.446ZM52.752 29.514c-.392-.388-1.365-.498-2.069-.32-.69.177-.495 1.223-.495 1.966v4.839c0 3.028-.363 3.742 1.105 3.743.822 0 1.733.197 1.832-.644.173-1.463-.323-5.893.266-6.963a1.146 1.146 0 0 1 .793-.5 1.166 1.166 0 0 1 .907.249c.491.448.468 1.145.467 1.926a2168.32 2168.32 0 0 0 0 4.84c0 1.106.315 1.095 1.376 1.094 2.092-.004 1.57.045 1.57-5.66 0-.786-.112-1.568.383-2.088a1.086 1.086 0 0 1 .824-.379 1.101 1.101 0 0 1 .828.37c.614.691.375 3.384.375 4.471 0 3.338-.312 3.284 1.567 3.286 1.067 0 1.38.022 1.378-1.094 0-1.625.112-6.033-.12-7.085a2.975 2.975 0 0 0-.803-1.604 3.039 3.039 0 0 0-1.586-.864 2.922 2.922 0 0 0-1.515.04c-.493.145-.937.419-1.287.791a.99.99 0 0 0-.272.371l-.253.332c-.732-1.674-3.138-2.01-4.318-1.109-.75.572-.598.836-.887 1.058l-.066-1.066ZM67.822 33.154c.037-.901.367-1.867 1.31-1.803.895.061 1.167.938 1.194 1.803h-2.504Zm-.08 1.81h2.69c.707 0 2.016.193 2.458-.19a9.65 9.65 0 0 0-.577-3.92c-.47-1.053-1.299-1.664-2.712-1.783-3.157-.266-4.513 1.382-4.78 4.193-.279 2.937.21 5.64 2.573 6.37a5.347 5.347 0 0 0 3.838-.293 3.107 3.107 0 0 0 1.223-1.23c.281-.516.408-1.1.365-1.685-.425-.39-1.791-.544-2.424-.455-.13.542-.06.761-.484 1.068a1.431 1.431 0 0 1-1.247.154c-.755-.271-.883-1.25-.923-2.229ZM69.881 22.638c-.323 2.44-1.89 1.551-2.112 1.232-.596-.858-.693-4.364.258-5.042a1.019 1.019 0 0 1 1.456.25c.54.775.532 2.55.398 3.56Zm-5.455.182c.155 1.505.636 2.66 1.526 3.3 1.534 1.1 5.496 1.372 6.554-1.678.4-1.39.514-2.845.337-4.28-.353-3.12-2.253-4.673-5.47-3.976-2.97.643-3.204 4.128-2.947 6.634ZM58.201 20.186c-.814.052-.726.48-.726 1.265 0 .96-.065.965.7 1.278.364 3.32-.825 4.017 1.5 4.016 1.812 0 1.47-.068 1.47-4.06 2.015 0 2.282.236 2.278-1.234-.004-1.493-.194-1.265-2.278-1.265.006-2.564 1.543-1.013 2.454-1.615.318-.463.174-1.767.003-2.272-1.123-.403-3.166-.304-4.093.335-1.1.758-1.307 1.85-1.308 3.552ZM62.708 6.907c.545 0 1.08.035 1.255-.438a5.37 5.37 0 0 0 .018-1.518c-.182-.767-1.441-.54-2.713-.54-.843 0-2.625-.323-2.789.576a4.83 4.83 0 0 0 .074 1.591c.196.407.689.298 1.21.354l-.004 3.323c-.52-.008-1.061-.054-1.24.42a5.461 5.461 0 0 0-.015 1.605c.181.694 1.645.47 2.857.47.87 0 2.541.316 2.645-.655.202-1.907-.32-1.843-1.298-1.843V6.907ZM60.532.125c-2.493.88-1.106 4.154 1.18 3.48a1.883 1.883 0 0 0 1.139-.896 1.834 1.834 0 0 0 .143-1.432 1.892 1.892 0 0 0-.989-1.081 1.942 1.942 0 0 0-1.474-.07Z"
      clip-rule="evenodd"
    />
  </g>
</svg>
